<svg width="96" height="48" viewBox="0 0 96 48" fill="none" xmlns="http://www.w3.org/2000/svg">
<g clip-path="url(#clip0_13_132)">
<path d="M0.19662 47.4963H0.00878906L2.01996 43.0586H2.26276L4.27393 47.4963H4.0861L2.15281 43.2324H2.12991L0.19662 47.4963ZM0.833413 45.8584H3.4493V45.9957H0.833413V45.8584Z" fill="#223030" stroke="#223030" stroke-width="0.75" stroke-miterlimit="10"/>
<path d="M5.40137 47.4963V43.0586H5.57545V47.3544H8.38834V47.4917H5.40137V47.4963Z" fill="#223030" stroke="#223030" stroke-width="0.75" stroke-miterlimit="10"/>
<path d="M9.75293 47.4963V43.0586H12.7536V43.1958H9.9316V45.2042H12.5887V45.3415H9.9316V47.3499H12.8315V47.4871H9.75751L9.75293 47.4963Z" fill="#223030" stroke="#223030" stroke-width="0.75" stroke-miterlimit="10"/>
<path d="M13.8713 43.0586L15.6396 45.1448H15.6625L17.4309 43.0586H17.6508L15.7633 45.2774L17.6508 47.4963H17.4309L15.6625 45.4101H15.6396L13.8713 47.4963H13.6514L15.5388 45.2774L13.6514 43.0586H13.8713Z" fill="#223030" stroke="#223030" stroke-width="0.75" stroke-miterlimit="10"/>
<path d="M18.3519 47.4963H18.1641L20.1752 43.0586H20.418L22.4292 47.4963H22.2414L20.3081 43.2324H20.2852L18.3519 47.4963ZM18.9887 45.8584H21.6046V45.9957H18.9887V45.8584Z" fill="#223030" stroke="#223030" stroke-width="0.75" stroke-miterlimit="10"/>
<path d="M27.7753 43.0586V47.4963H27.6012L23.7575 43.3194H23.7346V47.4963H23.5605V43.0586H23.7346L27.5783 47.2355H27.6012V43.0586H27.7753Z" fill="#223030" stroke="#223030" stroke-width="0.75" stroke-miterlimit="10"/>
<path d="M31.0009 47.4963H29.5303V43.0586H31.1429C31.6606 43.0586 32.1049 43.1455 32.4714 43.3194C32.8379 43.4932 33.122 43.7448 33.319 44.0742C33.516 44.4036 33.6122 44.7971 33.6122 45.2546C33.6122 45.7258 33.5068 46.1284 33.3006 46.4623C33.0945 46.7963 32.7967 47.0479 32.4073 47.2263C32.0179 47.4002 31.546 47.4917 30.9963 47.4917L31.0009 47.4963ZM29.7044 47.359H31.0009C31.5185 47.359 31.9629 47.2767 32.3294 47.1074C32.6913 46.9427 32.9708 46.7002 33.1586 46.3891C33.3465 46.0735 33.4427 45.6983 33.4381 45.2637C33.4381 44.8337 33.3465 44.4631 33.1632 44.1566C32.9845 43.8501 32.7234 43.6122 32.3798 43.4475C32.0408 43.2828 31.6239 43.2004 31.1383 43.2004H29.6998V47.359H29.7044Z" fill="#223030" stroke="#223030" stroke-width="0.75" stroke-miterlimit="10"/>
<path d="M35.0557 47.4963V43.0586H36.7049C37.021 43.0586 37.3005 43.1135 37.5433 43.2187C37.7861 43.3239 37.9785 43.4703 38.1159 43.6625C38.2534 43.8501 38.3221 44.0742 38.3221 44.3258C38.3221 44.5775 38.2534 44.7971 38.1159 44.9846C37.9785 45.1722 37.7861 45.3186 37.5433 45.4238C37.3005 45.5291 37.021 45.5794 36.7049 45.5794H35.1473V45.4421H36.7049C36.9889 45.4421 37.2363 45.3964 37.4517 45.3049C37.667 45.2134 37.8365 45.0807 37.9602 44.916C38.0839 44.7467 38.1434 44.55 38.1434 44.3258C38.1434 44.1017 38.0839 43.9004 37.9602 43.7311C37.8365 43.5618 37.667 43.4337 37.4517 43.3377C37.2363 43.2462 36.9889 43.1958 36.7049 43.1958H35.2343V47.4917H35.0602L35.0557 47.4963ZM37.1997 45.4787L38.5832 47.4963H38.3862L37.0027 45.4787H37.1997Z" fill="#223030" stroke="#223030" stroke-width="0.75" stroke-miterlimit="10"/>
<path d="M43.6771 43.0586H43.8512V45.9957C43.8512 46.2976 43.7642 46.563 43.5855 46.8009C43.4068 47.0388 43.1686 47.2218 42.8662 47.359C42.5639 47.4963 42.2157 47.5649 41.8309 47.5649C41.4461 47.5649 41.1025 47.4963 40.8001 47.359C40.4932 47.2218 40.2549 47.0342 40.0763 46.8009C39.8976 46.563 39.8105 46.2976 39.8105 46.0003V43.0632H39.9846V46.0003C39.9846 46.2748 40.0625 46.5172 40.2229 46.7368C40.3832 46.9518 40.6031 47.1211 40.8826 47.2446C41.162 47.3682 41.4781 47.4322 41.8309 47.4322C42.1836 47.4322 42.4997 47.3682 42.7792 47.2446C43.0587 47.1211 43.2785 46.9518 43.4389 46.7368C43.5992 46.5218 43.6771 46.2748 43.6771 46.0003V43.0632V43.0586Z" fill="#223030" stroke="#223030" stroke-width="0.75" stroke-miterlimit="10"/>
<path d="M47.7861 47.4963V43.0586H47.9602V45.2088H51.5382V43.0586H51.7123V47.4963H51.5382V45.3461H47.9602V47.4963H47.7861Z" fill="#223030" stroke="#223030" stroke-width="0.75" stroke-miterlimit="10"/>
<path d="M57.8105 45.2783C57.8105 45.7312 57.7143 46.1292 57.5173 46.4678C57.3203 46.8109 57.05 47.0762 56.6973 47.2684C56.3491 47.4605 55.9413 47.5566 55.4786 47.5566C55.0159 47.5566 54.6082 47.4605 54.26 47.2684C53.9119 47.0762 53.637 46.8109 53.4446 46.4678C53.2476 46.1247 53.1514 45.7312 53.1514 45.2783C53.1514 44.8254 53.2476 44.4274 53.4446 44.0888C53.6416 43.7457 53.9119 43.4804 54.2646 43.2882C54.6174 43.0961 55.0205 43 55.4786 43C55.9368 43 56.3445 43.0961 56.6973 43.2882C57.0454 43.4804 57.3203 43.7457 57.5173 44.0888C57.7143 44.4319 57.8105 44.83 57.8105 45.2783ZM57.6364 45.2783C57.6364 44.8528 57.5448 44.4823 57.3661 44.1575C57.1874 43.8326 56.9309 43.5856 56.6102 43.4072C56.2849 43.2287 55.9139 43.1372 55.4878 43.1372C55.0617 43.1372 54.6907 43.2287 54.3654 43.4026C54.0401 43.581 53.7882 43.8326 53.6095 44.1529C53.4262 44.4731 53.3346 44.8483 53.3346 45.2783C53.3346 45.7084 53.4262 46.0698 53.6049 46.3946C53.7836 46.7148 54.0355 46.9665 54.3608 47.1494C54.6815 47.3324 55.0617 47.4194 55.4924 47.4194C55.923 47.4194 56.2941 47.3279 56.6194 47.1494C56.9446 46.971 57.1966 46.7194 57.3753 46.3992C57.5539 46.0789 57.6456 45.7038 57.6456 45.2829L57.6364 45.2783Z" fill="#223030" stroke="#223030" stroke-width="0.75" stroke-miterlimit="10"/>
<path d="M59.249 47.4963V43.0586H60.8983C61.2144 43.0586 61.4938 43.1135 61.7366 43.2187C61.9794 43.3239 62.1719 43.4703 62.3093 43.6625C62.4467 43.8501 62.5155 44.0742 62.5155 44.3258C62.5155 44.5775 62.4467 44.7971 62.3093 44.9846C62.1719 45.1722 61.9794 45.3186 61.7366 45.4238C61.4938 45.5291 61.2144 45.5794 60.8983 45.5794H59.3406V45.4421H60.8983C61.1823 45.4421 61.4297 45.3964 61.645 45.3049C61.8603 45.2134 62.0298 45.0807 62.1535 44.916C62.2772 44.7467 62.3368 44.55 62.3368 44.3258C62.3368 44.1017 62.2772 43.9004 62.1535 43.7311C62.0298 43.5618 61.8603 43.4337 61.645 43.3377C61.4297 43.2462 61.1823 43.1958 60.8983 43.1958H59.4277V47.4917H59.2536L59.249 47.4963ZM61.393 45.4787L62.7766 47.4963H62.5796L61.1961 45.4787H61.393Z" fill="#223030" stroke="#223030" stroke-width="0.75" stroke-miterlimit="10"/>
<path d="M63.6013 43.1958V43.0586H67.3991V43.1958H65.5849V47.4917H65.4108V43.1958H63.5967H63.6013Z" fill="#223030" stroke="#223030" stroke-width="0.75" stroke-miterlimit="10"/>
<path d="M72.8593 45.2783C72.8593 45.7312 72.7631 46.1292 72.5661 46.4678C72.3691 46.8109 72.0988 47.0762 71.7461 47.2684C71.3979 47.4605 70.9902 47.5566 70.5275 47.5566C70.0648 47.5566 69.657 47.4605 69.3089 47.2684C68.9607 47.0762 68.6858 46.8109 68.4934 46.4678C68.2964 46.1247 68.2002 45.7312 68.2002 45.2783C68.2002 44.8254 68.2964 44.4274 68.4934 44.0888C68.6904 43.7457 68.9607 43.4804 69.3134 43.2882C69.6662 43.0961 70.0693 43 70.5275 43C70.9856 43 71.3933 43.0961 71.7461 43.2882C72.0943 43.4804 72.3691 43.7457 72.5661 44.0888C72.7631 44.4319 72.8593 44.83 72.8593 45.2783ZM72.6852 45.2783C72.6852 44.8528 72.5936 44.4823 72.4149 44.1575C72.2363 43.8326 71.9797 43.5856 71.659 43.4072C71.3338 43.2287 70.9627 43.1372 70.5366 43.1372C70.1106 43.1372 69.7395 43.2287 69.4142 43.4026C69.089 43.581 68.837 43.8326 68.6583 44.1529C68.4751 44.4731 68.3834 44.8483 68.3834 45.2783C68.3834 45.7084 68.4751 46.0698 68.6537 46.3946C68.8324 46.7148 69.0844 46.9665 69.4097 47.1494C69.7303 47.3324 70.1106 47.4194 70.5412 47.4194C70.9718 47.4194 71.3429 47.3279 71.6682 47.1494C71.9935 46.971 72.2454 46.7194 72.4241 46.3992C72.6028 46.0789 72.6944 45.7038 72.6944 45.2829L72.6852 45.2783Z" fill="#223030" stroke="#223030" stroke-width="0.75" stroke-miterlimit="10"/>
<path d="M74.2979 47.4963V43.0586H74.4719V47.3544H77.2848V47.4917H74.2979V47.4963Z" fill="#223030" stroke="#223030" stroke-width="0.75" stroke-miterlimit="10"/>
<path d="M82.7646 45.2783C82.7646 45.7312 82.6684 46.1292 82.4714 46.4678C82.2744 46.8109 82.0041 47.0762 81.6513 47.2684C81.3032 47.4605 80.8954 47.5566 80.4327 47.5566C79.97 47.5566 79.5623 47.4605 79.2141 47.2684C78.866 47.0762 78.5911 46.8109 78.3987 46.4678C78.2017 46.1247 78.1055 45.7312 78.1055 45.2783C78.1055 44.8254 78.2017 44.4274 78.3987 44.0888C78.5957 43.7457 78.866 43.4804 79.2187 43.2882C79.5715 43.0961 79.9746 43 80.4327 43C80.8909 43 81.2986 43.0961 81.6513 43.2882C81.9995 43.4804 82.2744 43.7457 82.4714 44.0888C82.6684 44.4319 82.7646 44.83 82.7646 45.2783ZM82.5905 45.2783C82.5905 44.8528 82.4989 44.4823 82.3202 44.1575C82.1415 43.8326 81.885 43.5856 81.5643 43.4072C81.239 43.2287 80.868 43.1372 80.4419 43.1372C80.0158 43.1372 79.6448 43.2287 79.3195 43.4026C78.9942 43.581 78.7423 43.8326 78.5636 44.1529C78.3803 44.4731 78.2887 44.8483 78.2887 45.2783C78.2887 45.7084 78.3803 46.0698 78.559 46.3946C78.7377 46.7148 78.9896 46.9665 79.3149 47.1494C79.6356 47.3324 80.0158 47.4194 80.4465 47.4194C80.8771 47.4194 81.2482 47.3279 81.5735 47.1494C81.8987 46.971 82.1507 46.7194 82.3294 46.3992C82.508 46.0789 82.5997 45.7038 82.5997 45.2829L82.5905 45.2783Z" fill="#223030" stroke="#223030" stroke-width="0.75" stroke-miterlimit="10"/>
<path d="M84.2031 43.0586H84.3589L86.6541 47.2858H86.677L88.9722 43.0586H89.128V47.4963H88.9539V43.4932H88.931L86.7549 47.4963H86.5808L84.4047 43.4932H84.3818V47.4963H84.2077V43.0586H84.2031Z" fill="#223030" stroke="#223030" stroke-width="0.75" stroke-miterlimit="10"/>
<path d="M90.8828 47.4963V43.0586H93.8835V43.1958H91.0615V45.2042H93.7186V45.3415H91.0615V47.3499H93.9614V47.4871H90.8874L90.8828 47.4963Z" fill="#223030" stroke="#223030" stroke-width="0.75" stroke-miterlimit="10"/>
<path d="M95.5686 43.0586V47.4963H95.3945V43.0586H95.5686Z" fill="#223030" stroke="#223030" stroke-width="0.75" stroke-miterlimit="10"/>
<path d="M44.1403 22.0374V39.1064H34.9778V28.9318H26.6858V21.1544H34.9412C34.4922 14.4613 28.8893 9.14983 22.0679 9.14983C15.2464 9.14983 9.16249 14.9325 9.16249 22.0374V39.1064H0V22.0374C0 9.88639 9.90007 0 22.0679 0C34.2356 0 44.1403 9.88639 44.1403 22.0374Z" fill="#223030"/>
<path d="M61.2142 1.04688H52.0518V39.1696H61.2142V1.04688Z" fill="#223030"/>
<path d="M95.5691 1.04688V39.1696H86.4066V28.995H78.8018V21.2177H86.4066V1.04688H95.5691Z" fill="#223030"/>
</g>
<defs>
<clipPath id="clip0_13_132">
<rect width="96" height="48" fill="#223030"/>
</clipPath>
</defs>
</svg>